ffmpeg started on 2016-11-27 at 07:52:42
Report written to "Output/NVENCh264/results/ffmpeg/old_town_cross_2160p50llhq5000k.log"
Command line:
Tools/ffmpeg/ffmpeg -benchmark -y -i Input/y4m/old_town_cross_2160p50.y4m -c:v h264_nvenc -preset llhq -b:v 5000k -an Output/NVENCh264/encoded/old_town_cross_2160p50llhq5000k.mkv
ffmpeg version N-82227-gdb23fde Copyright (c) 2000-2016 the FFmpeg developers
  built with gcc 5.4.0 (Ubuntu 5.4.0-6ubuntu1~16.04.2) 20160609
  configuration: --prefix=/home/jaroslav/ffmpeg_build --pkg-config-flags=--static --extra-cflags=-I/home/jaroslav/ffmpeg_build/include --extra-ldflags=-L/home/jaroslav/ffmpeg_build/lib --bindir=/home/jaroslav/bin --enable-gpl --enable-libass --enable-libfdk-aac --enable-libfreetype --enable-libmp3lame --enable-libopus --enable-libtheora --enable-libvorbis --enable-libvpx --enable-libx264 --enable-libx265 --enable-nvenc --enable-libmfx --enable-libxvid --enable-libgsm --enable-libopencore-amrnb --enable-version3 --enable-nonfree
  libavutil      55. 35.100 / 55. 35.100
  libavcodec     57. 66.101 / 57. 66.101
  libavformat    57. 57.100 / 57. 57.100
  libavdevice    57.  2.100 / 57.  2.100
  libavfilter     6. 66.100 /  6. 66.100
  libswscale      4.  3.100 /  4.  3.100
  libswresample   2.  4.100 /  2.  4.100
  libpostproc    54.  2.100 / 54.  2.100
Input #0, yuv4mpegpipe, from 'Input/y4m/old_town_cross_2160p50.y4m':
  Duration: 00:00:10.00, start: 0.000000, bitrate: 4976642 kb/s
    Stream #0:0: Video: rawvideo (I420 / 0x30323449), yuv420p(progressive), 3840x2160, SAR 1:1 DAR 16:9, 50 fps, 50 tbr, 50 tbn, 50 tbc
[h264_nvenc @ 0x34c9120] The variable bitrate rate-control requires the 'qmin' and/or 'qmax' option set.
Output #0, matroska, to 'Output/NVENCh264/encoded/old_town_cross_2160p50llhq5000k.mkv':
  Metadata:
    encoder         : Lavf57.57.100
    Stream #0:0: Video: h264 (h264_nvenc) (Main) (H264 / 0x34363248), yuv420p, 3840x2160 [SAR 1:1 DAR 16:9], q=-1--1, 5000 kb/s, 50 fps, 1k tbn, 50 tbc
    Metadata:
      encoder         : Lavc57.66.101 h264_nvenc
    Side data:
      cpb: bitrate max/min/avg: 0/0/5000000 buffer size: 10000000 vbv_delay: -1
Stream mapping:
  Stream #0:0 -> #0:0 (rawvideo (native) -> h264 (h264_nvenc))
Press [q] to stop, [?] for help
frame=    8 fps=0.0 q=0.0 size=       0kB time=00:00:00.00 bitrate=N/A speed=   0x    frame=   15 fps= 15 q=0.0 size=       0kB time=00:00:00.00 bitrate=N/A speed=   0x    frame=   24 fps= 16 q=0.0 size=       0kB time=00:00:00.00 bitrate=N/A speed=   0x    frame=   42 fps= 20 q=36.0 size=       1kB time=00:00:00.22 bitrate=  27.0kbits/s speed=0.108x    frame=   50 fps= 18 q=36.0 size=       1kB time=00:00:00.38 bitrate=  15.7kbits/s speed=0.137x    frame=   68 fps= 21 q=36.0 size=       1kB time=00:00:00.74 bitrate=   8.1kbits/s speed=0.224x    frame=   86 fps= 23 q=36.0 size=       1kB time=00:00:01.10 bitrate=   5.4kbits/s speed=0.288x    frame=  104 fps= 24 q=36.0 size=       1kB time=00:00:01.46 bitrate=   4.1kbits/s speed=0.337x    frame=  122 fps= 25 q=35.0 size=       1kB time=00:00:01.82 bitrate=   3.3kbits/s speed=0.375x    frame=  140 fps= 26 q=35.0 size=       1kB time=00:00:02.18 bitrate=   2.7kbits/s speed=0.406x    frame=  158 fps= 27 q=35.0 size=       1kB time=00:00:02.54 bitrate=   2.4kbits/s speed=0.432x    frame=  176 fps= 28 q=34.0 size=       1kB time=00:00:02.90 bitrate=   2.1kbits/s speed=0.454x    frame=  194 fps= 28 q=34.0 size=       1kB time=00:00:03.26 bitrate=   1.8kbits/s speed=0.472x    frame=  212 fps= 29 q=34.0 size=       1kB time=00:00:03.62 bitrate=   1.7kbits/s speed=0.488x    frame=  230 fps= 29 q=35.0 size=       1kB time=00:00:03.98 bitrate=   1.5kbits/s speed=0.502x    frame=  248 fps= 29 q=34.0 size=       1kB time=00:00:04.34 bitrate=   1.4kbits/s speed=0.514x    frame=  256 fps= 29 q=34.0 size=       1kB time=00:00:04.50 bitrate=   1.3kbits/s speed=0.502x    frame=  266 fps= 28 q=34.0 size=       1kB time=00:00:04.70 bitrate=   1.3kbits/s speed=0.495x    frame=  270 fps= 27 q=34.0 size=       1kB time=00:00:04.78 bitrate=   1.2kbits/s speed=0.477x    frame=  288 fps= 27 q=39.0 size=    2936kB time=00:00:05.14 bitrate=4678.3kbits/s speed=0.488x    frame=  306 fps= 28 q=37.0 size=    2936kB time=00:00:05.50 bitrate=4372.1kbits/s speed=0.498x    frame=  324 fps= 28 q=38.0 size=    2936kB time=00:00:05.86 bitrate=4103.6kbits/s speed=0.507x    frame=  342 fps= 28 q=36.0 size=    2936kB time=00:00:06.22 bitrate=3866.1kbits/s speed=0.515x    frame=  360 fps= 29 q=36.0 size=    2936kB time=00:00:06.58 bitrate=3654.6kbits/s speed=0.523x    frame=  378 fps= 29 q=36.0 size=    2936kB time=00:00:06.94 bitrate=3465.1kbits/s speed=0.53x    frame=  396 fps= 29 q=36.0 size=    2936kB time=00:00:07.30 bitrate=3294.2kbits/s speed=0.536x    frame=  404 fps= 29 q=35.0 size=    2936kB time=00:00:07.46 bitrate=3223.6kbits/s speed=0.527x    frame=  422 fps= 29 q=36.0 size=    2936kB time=00:00:07.82 bitrate=3075.2kbits/s speed=0.533x    frame=  440 fps= 29 q=36.0 size=    2936kB time=00:00:08.18 bitrate=2939.9kbits/s speed=0.539x    frame=  458 fps= 29 q=36.0 size=    2936kB time=00:00:08.54 bitrate=2816.0kbits/s speed=0.544x    frame=  476 fps= 29 q=36.0 size=    2936kB time=00:00:08.90 bitrate=2702.1kbits/s speed=0.549x    frame=  494 fps= 30 q=36.0 size=    2936kB time=00:00:09.26 bitrate=2597.0kbits/s speed=0.554x    frame=  500 fps= 30 q=37.0 Lsize=    5989kB time=00:00:09.98 bitrate=4915.8kbits/s speed=0.589x    
video:5985kB audio:0kB subtitle:0kB other streams:0kB global headers:0kB muxing overhead: 0.071223%
bench: utime=1.148s
bench: maxrss=1396704kB
